<svg xmlns="http://www.w3.org/2000/svg" xmlns:xlink="http://www.w3.org/1999/xlink" width="803" zoomAndPan="magnify" viewBox="0 0 602.25 362.250002" height="483" preserveAspectRatio="xMidYMid meet" version="1.0"><defs><clipPath id="0cb9a00453"><path d="M 11.230469 21.34375 L 41.414062 21.34375 L 41.414062 51.527344 L 11.230469 51.527344 Z M 11.230469 21.34375 " clip-rule="nonzero"/></clipPath><clipPath id="34d221b09a"><path d="M 61.484375 332.769531 L 80.6875 332.769531 L 80.6875 351.976562 L 61.484375 351.976562 Z M 61.484375 332.769531 " clip-rule="nonzero"/></clipPath><clipPath id="3274bc2d26"><path d="M 521.234375 27.910156 L 539.070312 27.910156 L 539.070312 45.746094 L 521.234375 45.746094 Z M 521.234375 27.910156 " clip-rule="nonzero"/></clipPath><clipPath id="af3bf70b24"><path d="M 548 298.28125 L 572.695312 298.28125 L 572.695312 322.976562 L 548 322.976562 Z M 548 298.28125 " clip-rule="nonzero"/></clipPath><clipPath id="65b80e7d32"><path d="M 9 84 L 38 84 L 38 110 L 9 110 Z M 9 84 " clip-rule="nonzero"/></clipPath><clipPath id="630c8176bd"><path d="M 1.476562 96.339844 L 17.199219 73.019531 L 37.671875 86.824219 L 21.953125 110.144531 Z M 1.476562 96.339844 " clip-rule="nonzero"/></clipPath><clipPath id="b9e4e00509"><path d="M 1.476562 96.339844 L 17.199219 73.019531 L 37.671875 86.824219 L 21.953125 110.144531 Z M 1.476562 96.339844 " clip-rule="nonzero"/></clipPath><clipPath id="af92a68385"><path d="M 139 332 L 166 332 L 166 361 L 139 361 Z M 139 332 " clip-rule="nonzero"/></clipPath><clipPath id="92bf56401e"><path d="M 128.347656 341.472656 L 150.613281 324.289062 L 165.703125 343.835938 L 143.4375 361.023438 Z M 128.347656 341.472656 " clip-rule="nonzero"/></clipPath><clipPath id="be856d216a"><path d="M 128.347656 341.472656 L 150.613281 324.289062 L 165.703125 343.835938 L 143.4375 361.023438 Z M 128.347656 341.472656 " clip-rule="nonzero"/></clipPath><clipPath id="6cac5fdcc2"><path d="M 493 334 L 522 334 L 522 361 L 493 361 Z M 493 334 " clip-rule="nonzero"/></clipPath><clipPath id="060534f5c2"><path d="M 513.371094 323.015625 L 530.136719 345.59375 L 510.3125 360.316406 L 493.542969 337.738281 Z M 513.371094 323.015625 " clip-rule="nonzero"/></clipPath><clipPath id="ffd5a2005a"><path d="M 513.371094 323.015625 L 530.136719 345.59375 L 510.3125 360.316406 L 493.542969 337.738281 Z M 513.371094 323.015625 " clip-rule="nonzero"/></clipPath><clipPath id="61b8c95fb4"><path d="M 455 8 L 482 8 L 482 37 L 455 37 Z M 455 8 " clip-rule="nonzero"/></clipPath><clipPath id="9a28f94799"><path d="M 444.601562 17.179688 L 466.867188 -0.00390625 L 481.953125 19.542969 L 459.691406 36.726562 Z M 444.601562 17.179688 " clip-rule="nonzero"/></clipPath><clipPath id="5d2e683784"><path d="M 444.601562 17.179688 L 466.867188 -0.00390625 L 481.953125 19.542969 L 459.691406 36.726562 Z M 444.601562 17.179688 " clip-rule="nonzero"/></clipPath><clipPath id="1e4647cddd"><path d="M 11 253 L 38 253 L 38 282 L 11 282 Z M 11 253 " clip-rule="nonzero"/></clipPath><clipPath id="99ce3928b0"><path d="M 0.25 262.132812 L 22.511719 244.949219 L 37.601562 264.496094 L 15.335938 281.679688 Z M 0.25 262.132812 " clip-rule="nonzero"/></clipPath><clipPath id="911923e2f5"><path d="M 0.25 262.132812 L 22.511719 244.949219 L 37.601562 264.496094 L 15.335938 281.679688 Z M 0.25 262.132812 " clip-rule="nonzero"/></clipPath><clipPath id="603e74f6ad"><path d="M 71 18 L 99 18 L 99 46 L 71 46 Z M 71 18 " clip-rule="nonzero"/></clipPath><clipPath id="2d8ca5f049"><path d="M 88.925781 8.550781 L 108.257812 28.976562 L 90.324219 45.953125 L 70.992188 25.527344 Z M 88.925781 8.550781 " clip-rule="nonzero"/></clipPath><clipPath id="4f77005d41"><path d="M 88.925781 8.550781 L 108.257812 28.976562 L 90.324219 45.953125 L 70.992188 25.527344 Z M 88.925781 8.550781 " clip-rule="nonzero"/></clipPath><clipPath id="a9dc95bce2"><path d="M 573 256 L 601.253906 256 L 601.253906 282 L 573 282 Z M 573 256 " clip-rule="nonzero"/></clipPath><clipPath id="f146f9848f"><path d="M 565.523438 268.582031 L 580.765625 244.945312 L 601.519531 258.328125 L 586.277344 281.964844 Z M 565.523438 268.582031 " clip-rule="nonzero"/></clipPath><clipPath id="2ab944a77d"><path d="M 565.523438 268.582031 L 580.765625 244.945312 L 601.519531 258.328125 L 586.277344 281.964844 Z M 565.523438 268.582031 " clip-rule="nonzero"/></clipPath><clipPath id="61ef92c11e"><path d="M 548 63 L 575 63 L 575 92 L 548 92 Z M 548 63 " clip-rule="nonzero"/></clipPath><clipPath id="e23cef1f73"><path d="M 563.523438 54.804688 L 585.191406 72.730469 L 569.453125 91.757812 L 547.78125 73.832031 Z M 563.523438 54.804688 " clip-rule="nonzero"/></clipPath><clipPath id="c8918ab900"><path d="M 563.523438 54.804688 L 585.191406 72.730469 L 569.453125 91.757812 L 547.78125 73.832031 Z M 563.523438 54.804688 " clip-rule="nonzero"/></clipPath><clipPath id="c08e853049"><path d="M 39 48.347656 L 553 48.347656 L 553 331.644531 L 39 331.644531 Z M 39 48.347656 " clip-rule="nonzero"/></clipPath></defs><g clip-path="url(#0cb9a00453)"><path class="custom-color" d="M 41.457031 36.457031 C 41.457031 37.449219 41.359375 38.433594 41.164062 39.40625 C 40.972656 40.378906 40.683594 41.324219 40.304688 42.242188 C 39.925781 43.15625 39.460938 44.027344 38.910156 44.855469 C 38.359375 45.679688 37.730469 46.441406 37.03125 47.144531 C 36.328125 47.84375 35.5625 48.472656 34.738281 49.023438 C 33.914062 49.574219 33.042969 50.039062 32.125 50.421875 C 31.210938 50.800781 30.265625 51.085938 29.292969 51.28125 C 28.320312 51.472656 27.335938 51.570312 26.34375 51.570312 C 25.351562 51.570312 24.367188 51.472656 23.394531 51.28125 C 22.421875 51.085938 21.476562 50.800781 20.558594 50.421875 C 19.644531 50.039062 18.773438 49.574219 17.949219 49.023438 C 17.121094 48.472656 16.359375 47.84375 15.65625 47.144531 C 14.957031 46.441406 14.328125 45.679688 13.777344 44.855469 C 13.226562 44.027344 12.761719 43.15625 12.382812 42.242188 C 12 41.324219 11.714844 40.378906 11.519531 39.40625 C 11.328125 38.433594 11.230469 37.449219 11.230469 36.457031 C 11.230469 35.464844 11.328125 34.484375 11.519531 33.507812 C 11.714844 32.535156 12 31.589844 12.382812 30.675781 C 12.761719 29.757812 13.226562 28.886719 13.777344 28.0625 C 14.328125 27.238281 14.957031 26.472656 15.65625 25.773438 C 16.359375 25.070312 17.121094 24.445312 17.949219 23.890625 C 18.773438 23.339844 19.644531 22.875 20.558594 22.496094 C 21.476562 22.117188 22.421875 21.828125 23.394531 21.636719 C 24.367188 21.441406 25.351562 21.34375 26.34375 21.34375 C 27.335938 21.34375 28.320312 21.441406 29.292969 21.636719 C 30.265625 21.828125 31.210938 22.117188 32.125 22.496094 C 33.042969 22.875 33.914062 23.339844 34.738281 23.890625 C 35.5625 24.445312 36.328125 25.070312 37.03125 25.773438 C 37.730469 26.472656 38.359375 27.238281 38.910156 28.0625 C 39.460938 28.886719 39.925781 29.757812 40.304688 30.675781 C 40.683594 31.589844 40.972656 32.535156 41.164062 33.507812 C 41.359375 34.484375 41.457031 35.464844 41.457031 36.457031 Z M 41.457031 36.457031 " fill-opacity="1" fill-rule="nonzero"/></g><g clip-path="url(#34d221b09a)"><path class="custom-color" d="M 80.988281 342.523438 C 80.988281 343.164062 80.925781 343.796875 80.800781 344.425781 C 80.675781 345.054688 80.492188 345.664062 80.246094 346.253906 C 80 346.847656 79.703125 347.410156 79.34375 347.941406 C 78.988281 348.472656 78.585938 348.96875 78.132812 349.421875 C 77.679688 349.871094 77.1875 350.277344 76.65625 350.632812 C 76.121094 350.988281 75.558594 351.289062 74.96875 351.535156 C 74.375 351.78125 73.765625 351.964844 73.136719 352.089844 C 72.511719 352.214844 71.875 352.277344 71.234375 352.277344 C 70.59375 352.277344 69.960938 352.214844 69.332031 352.089844 C 68.703125 351.964844 68.09375 351.78125 67.503906 351.535156 C 66.910156 351.289062 66.351562 350.988281 65.816406 350.632812 C 65.285156 350.277344 64.792969 349.871094 64.339844 349.421875 C 63.886719 348.96875 63.480469 348.472656 63.125 347.941406 C 62.769531 347.410156 62.46875 346.847656 62.226562 346.253906 C 61.980469 345.664062 61.792969 345.054688 61.667969 344.425781 C 61.542969 343.796875 61.484375 343.164062 61.484375 342.523438 C 61.484375 341.882812 61.542969 341.25 61.667969 340.621094 C 61.792969 339.992188 61.980469 339.382812 62.226562 338.789062 C 62.46875 338.199219 62.769531 337.636719 63.125 337.105469 C 63.480469 336.570312 63.886719 336.078125 64.339844 335.625 C 64.792969 335.171875 65.285156 334.769531 65.816406 334.414062 C 66.351562 334.058594 66.910156 333.757812 67.503906 333.511719 C 68.09375 333.265625 68.703125 333.082031 69.332031 332.957031 C 69.960938 332.832031 70.59375 332.769531 71.234375 332.769531 C 71.875 332.769531 72.511719 332.832031 73.136719 332.957031 C 73.765625 333.082031 74.375 333.265625 74.96875 333.511719 C 75.558594 333.757812 76.121094 334.058594 76.65625 334.414062 C 77.1875 334.769531 77.679688 335.171875 78.132812 335.625 C 78.585938 336.078125 78.988281 336.570312 79.34375 337.105469 C 79.703125 337.636719 80 338.199219 80.246094 338.789062 C 80.492188 339.382812 80.675781 339.992188 80.800781 340.621094 C 80.925781 341.25 80.988281 341.882812 80.988281 342.523438 Z M 80.988281 342.523438 " fill-opacity="1" fill-rule="nonzero"/></g><g clip-path="url(#3274bc2d26)"><path class="custom-color" d="M 539.039062 36.8125 C 539.039062 37.398438 538.980469 37.976562 538.867188 38.550781 C 538.753906 39.121094 538.582031 39.679688 538.359375 40.21875 C 538.136719 40.757812 537.863281 41.273438 537.539062 41.757812 C 537.210938 42.242188 536.84375 42.695312 536.429688 43.105469 C 536.015625 43.519531 535.566406 43.890625 535.082031 44.214844 C 534.59375 44.539062 534.082031 44.8125 533.542969 45.035156 C 533.003906 45.261719 532.445312 45.429688 531.871094 45.542969 C 531.300781 45.65625 530.71875 45.714844 530.136719 45.714844 C 529.550781 45.714844 528.972656 45.65625 528.398438 45.542969 C 527.828125 45.429688 527.269531 45.261719 526.730469 45.035156 C 526.191406 44.8125 525.675781 44.539062 525.191406 44.214844 C 524.703125 43.890625 524.253906 43.519531 523.84375 43.105469 C 523.429688 42.695312 523.058594 42.242188 522.734375 41.757812 C 522.410156 41.273438 522.136719 40.757812 521.914062 40.21875 C 521.6875 39.679688 521.519531 39.121094 521.40625 38.550781 C 521.292969 37.976562 521.234375 37.398438 521.234375 36.8125 C 521.234375 36.226562 521.292969 35.648438 521.40625 35.074219 C 521.519531 34.503906 521.6875 33.945312 521.914062 33.40625 C 522.136719 32.867188 522.410156 32.351562 522.734375 31.867188 C 523.058594 31.382812 523.429688 30.933594 523.84375 30.519531 C 524.253906 30.105469 524.703125 29.734375 525.191406 29.410156 C 525.675781 29.085938 526.191406 28.8125 526.730469 28.589844 C 527.269531 28.367188 527.828125 28.195312 528.398438 28.082031 C 528.972656 27.96875 529.550781 27.910156 530.136719 27.910156 C 530.71875 27.910156 531.300781 27.96875 531.871094 28.082031 C 532.445312 28.195312 533.003906 28.367188 533.542969 28.589844 C 534.082031 28.8125 534.59375 29.085938 535.082031 29.410156 C 535.566406 29.734375 536.015625 30.105469 536.429688 30.519531 C 536.84375 30.933594 537.210938 31.382812 537.539062 31.867188 C 537.863281 32.351562 538.136719 32.867188 538.359375 33.40625 C 538.582031 33.945312 538.753906 34.503906 538.867188 35.074219 C 538.980469 35.648438 539.039062 36.226562 539.039062 36.8125 Z M 539.039062 36.8125 " fill-opacity="1" fill-rule="nonzero"/></g><g clip-path="url(#af3bf70b24)"><path class="custom-color" d="M 572.726562 310.644531 C 572.726562 311.457031 572.648438 312.261719 572.488281 313.058594 C 572.332031 313.855469 572.09375 314.625 571.785156 315.375 C 571.472656 316.125 571.09375 316.839844 570.640625 317.515625 C 570.191406 318.1875 569.679688 318.8125 569.105469 319.386719 C 568.53125 319.960938 567.90625 320.472656 567.230469 320.925781 C 566.554688 321.375 565.84375 321.757812 565.09375 322.066406 C 564.34375 322.378906 563.570312 322.613281 562.773438 322.769531 C 561.980469 322.929688 561.175781 323.007812 560.363281 323.007812 C 559.550781 323.007812 558.746094 322.929688 557.949219 322.769531 C 557.15625 322.613281 556.382812 322.378906 555.632812 322.066406 C 554.882812 321.757812 554.167969 321.375 553.496094 320.925781 C 552.820312 320.472656 552.195312 319.960938 551.621094 319.386719 C 551.046875 318.8125 550.535156 318.1875 550.082031 317.515625 C 549.632812 316.839844 549.25 316.125 548.941406 315.375 C 548.628906 314.625 548.394531 313.855469 548.238281 313.058594 C 548.078125 312.261719 548 311.457031 548 310.644531 C 548 309.832031 548.078125 309.03125 548.238281 308.234375 C 548.394531 307.4375 548.628906 306.664062 548.941406 305.914062 C 549.25 305.164062 549.632812 304.453125 550.082031 303.777344 C 550.535156 303.101562 551.046875 302.476562 551.621094 301.902344 C 552.195312 301.328125 552.820312 300.816406 553.496094 300.367188 C 554.167969 299.914062 554.882812 299.535156 555.632812 299.222656 C 556.382812 298.914062 557.15625 298.679688 557.949219 298.519531 C 558.746094 298.363281 559.550781 298.28125 560.363281 298.28125 C 561.175781 298.28125 561.980469 298.363281 562.773438 298.519531 C 563.570312 298.679688 564.34375 298.914062 565.09375 299.222656 C 565.84375 299.535156 566.554688 299.914062 567.230469 300.367188 C 567.90625 300.816406 568.53125 301.328125 569.105469 301.902344 C 569.679688 302.476562 570.191406 303.101562 570.640625 303.777344 C 571.09375 304.453125 571.472656 305.164062 571.785156 305.914062 C 572.09375 306.664062 572.332031 307.4375 572.488281 308.234375 C 572.648438 309.03125 572.726562 309.832031 572.726562 310.644531 Z M 572.726562 310.644531 " fill-opacity="1" fill-rule="nonzero"/></g><g clip-path="url(#65b80e7d32)"><g clip-path="url(#630c8176bd)"><g clip-path="url(#b9e4e00509)"><path class="custom-color" d="M 21.664062 109.953125 L 9.335938 84.6875 L 37.382812 86.640625 Z M 21.664062 109.953125 " fill-opacity="1" fill-rule="nonzero"/></g></g></g><g clip-path="url(#af92a68385)"><g clip-path="url(#92bf56401e)"><g clip-path="url(#be856d216a)"><path class="custom-color" d="M 143.226562 360.75 L 139.480469 332.886719 L 165.480469 343.570312 Z M 143.226562 360.75 " fill-opacity="1" fill-rule="nonzero"/></g></g></g><g clip-path="url(#6cac5fdcc2)"><g clip-path="url(#060534f5c2)"><g clip-path="url(#ffd5a2005a)"><path class="custom-color" d="M 493.820312 337.53125 L 521.75 334.300781 L 510.582031 360.101562 Z M 493.820312 337.53125 " fill-opacity="1" fill-rule="nonzero"/></g></g></g><g clip-path="url(#61b8c95fb4)"><g clip-path="url(#9a28f94799)"><g clip-path="url(#5d2e683784)"><path class="custom-color" d="M 459.480469 36.453125 L 455.730469 8.589844 L 481.734375 19.277344 Z M 459.480469 36.453125 " fill-opacity="1" fill-rule="nonzero"/></g></g></g><g clip-path="url(#1e4647cddd)"><g clip-path="url(#99ce3928b0)"><g clip-path="url(#911923e2f5)"><path class="custom-color" d="M 15.125 281.40625 L 11.378906 253.546875 L 37.382812 264.230469 Z M 15.125 281.40625 " fill-opacity="1" fill-rule="nonzero"/></g></g></g><g clip-path="url(#603e74f6ad)"><g clip-path="url(#2d8ca5f049)"><g clip-path="url(#4f77005d41)"><path class="custom-color" d="M 71.242188 25.292969 L 98.585938 18.761719 L 90.566406 45.707031 Z M 71.242188 25.292969 " fill-opacity="1" fill-rule="nonzero"/></g></g></g><g clip-path="url(#a9dc95bce2)"><g clip-path="url(#f146f9848f)"><g clip-path="url(#2ab944a77d)"><path class="custom-color" d="M 585.988281 281.777344 L 573.144531 256.769531 L 601.222656 258.148438 Z M 585.988281 281.777344 " fill-opacity="1" fill-rule="nonzero"/></g></g></g><g clip-path="url(#61ef92c11e)"><g clip-path="url(#e23cef1f73)"><g clip-path="url(#c8918ab900)"><path class="custom-color" d="M 548.003906 73.566406 L 574.351562 63.765625 L 569.664062 91.484375 Z M 548.003906 73.566406 " fill-opacity="1" fill-rule="nonzero"/></g></g></g><path class="custom-color" d="M 435.089844 344.386719 C 438.386719 346.648438 442.71875 343.804688 442.007812 339.859375 L 437.03125 313.738281 L 483.648438 313.738281 C 515.714844 313.738281 541.707031 287.746094 541.707031 255.679688 L 541.707031 134.253906 C 541.707031 102.1875 515.714844 76.195312 483.648438 76.195312 L 108.386719 76.195312 C 76.316406 76.128906 50.324219 102.1875 50.324219 134.253906 L 50.324219 255.679688 C 50.324219 287.746094 76.316406 313.738281 108.386719 313.738281 L 390.285156 313.738281 Z M 435.089844 344.386719 " fill-opacity="1" fill-rule="nonzero"/><path fill="#ffffff" d="M 435.058594 323.753906 C 438.355469 326.019531 442.6875 323.171875 441.976562 319.226562 L 436.996094 293.097656 L 483.609375 293.097656 C 515.675781 293.097656 541.667969 267.09375 541.667969 235.011719 L 541.667969 113.542969 C 541.667969 81.464844 515.675781 55.460938 483.609375 55.460938 L 108.378906 55.460938 C 76.3125 55.398438 50.324219 81.464844 50.324219 113.542969 L 50.324219 235.015625 C 50.324219 267.09375 76.3125 293.097656 108.378906 293.097656 L 390.253906 293.097656 Z M 435.058594 323.753906 " fill-opacity="1" fill-rule="nonzero"/><g clip-path="url(#c08e853049)"><path stroke-linecap="butt" transform="matrix(0.646503, 0, 0, 0.646802, 37.393729, 48.346744)" fill="none" stroke-linejoin="miter" d="M 615.101149 425.798547 C 620.200699 429.30136 626.90141 424.898686 625.801744 418.79896 L 618.098041 378.401861 L 690.19866 378.401861 C 739.798423 378.401861 780.00269 338.198021 780.00269 288.596979 L 780.00269 100.797879 C 780.00269 51.202877 739.798423 10.999037 690.19866 10.999037 L 109.798647 10.999037 C 60.198883 10.902407 20.000658 51.202877 20.000658 100.797879 L 20.000658 288.603019 C 20.000658 338.198021 60.198883 378.401861 109.798647 378.401861 L 545.798032 378.401861 Z M 615.101149 425.798547 " stroke="#000000" stroke-width="3" stroke-opacity="1" stroke-miterlimit="4"/></g></svg>