<svg xmlns="http://www.w3.org/2000/svg" xmlns:xlink="http://www.w3.org/1999/xlink" width="803" zoomAndPan="magnify" viewBox="0 0 602.25 362.250002" height="483" preserveAspectRatio="xMidYMid meet" version="1.0"><defs><clipPath id="825496c2fa"><path d="M 11.230469 21.34375 L 41.167969 21.34375 L 41.167969 51.285156 L 11.230469 51.285156 Z M 11.230469 21.34375 " clip-rule="nonzero"/></clipPath><clipPath id="391b72ec89"><path d="M 61.484375 332.769531 L 80.941406 332.769531 L 80.941406 352.230469 L 61.484375 352.230469 Z M 61.484375 332.769531 " clip-rule="nonzero"/></clipPath><clipPath id="3fe999c992"><path d="M 521.234375 27.910156 L 539.199219 27.910156 L 539.199219 45.875 L 521.234375 45.875 Z M 521.234375 27.910156 " clip-rule="nonzero"/></clipPath><clipPath id="2c1f26decb"><path d="M 548 298.28125 L 572.699219 298.28125 L 572.699219 322.980469 L 548 322.980469 Z M 548 298.28125 " clip-rule="nonzero"/></clipPath><clipPath id="78efe4687b"><path d="M 9 84 L 38 84 L 38 110 L 9 110 Z M 9 84 " clip-rule="nonzero"/></clipPath><clipPath id="ebc6a5e622"><path d="M 1.476562 96.339844 L 17.378906 72.757812 L 37.855469 86.566406 L 21.957031 110.144531 Z M 1.476562 96.339844 " clip-rule="nonzero"/></clipPath><clipPath id="2b9bc7bc0e"><path d="M 1.476562 96.339844 L 17.378906 72.757812 L 37.855469 86.566406 L 21.957031 110.144531 Z M 1.476562 96.339844 " clip-rule="nonzero"/></clipPath><clipPath id="d6e77be3b5"><path d="M 139 332 L 166 332 L 166 361 L 139 361 Z M 139 332 " clip-rule="nonzero"/></clipPath><clipPath id="2552138a98"><path d="M 128.351562 341.472656 L 150.867188 324.09375 L 165.957031 343.648438 L 143.441406 361.023438 Z M 128.351562 341.472656 " clip-rule="nonzero"/></clipPath><clipPath id="41b12129d6"><path d="M 128.351562 341.472656 L 150.867188 324.09375 L 165.957031 343.648438 L 143.441406 361.023438 Z M 128.351562 341.472656 " clip-rule="nonzero"/></clipPath><clipPath id="02cba362d5"><path d="M 493 334 L 522 334 L 522 361 L 493 361 Z M 493 334 " clip-rule="nonzero"/></clipPath><clipPath id="7dec015884"><path d="M 513.367188 323.015625 L 530.324219 345.847656 L 510.496094 360.574219 L 493.539062 337.738281 Z M 513.367188 323.015625 " clip-rule="nonzero"/></clipPath><clipPath id="f9ae2f2b07"><path d="M 513.367188 323.015625 L 530.324219 345.847656 L 510.496094 360.574219 L 493.539062 337.738281 Z M 513.367188 323.015625 " clip-rule="nonzero"/></clipPath><clipPath id="d4b0c597fe"><path d="M 455 8 L 482 8 L 482 37 L 455 37 Z M 455 8 " clip-rule="nonzero"/></clipPath><clipPath id="d077121483"><path d="M 444.601562 17.179688 L 467.117188 -0.199219 L 482.207031 19.351562 L 459.695312 36.730469 Z M 444.601562 17.179688 " clip-rule="nonzero"/></clipPath><clipPath id="490580455b"><path d="M 444.601562 17.179688 L 467.117188 -0.199219 L 482.207031 19.351562 L 459.695312 36.730469 Z M 444.601562 17.179688 " clip-rule="nonzero"/></clipPath><clipPath id="3243d48c79"><path d="M 11 253 L 38 253 L 38 282 L 11 282 Z M 11 253 " clip-rule="nonzero"/></clipPath><clipPath id="583934246b"><path d="M 0.25 262.132812 L 22.765625 244.753906 L 37.855469 264.308594 L 15.339844 281.683594 Z M 0.25 262.132812 " clip-rule="nonzero"/></clipPath><clipPath id="147d5f0aae"><path d="M 0.25 262.132812 L 22.765625 244.753906 L 37.855469 264.308594 L 15.339844 281.683594 Z M 0.25 262.132812 " clip-rule="nonzero"/></clipPath><clipPath id="a79f8b55a8"><path d="M 71 18 L 99 18 L 99 46 L 71 46 Z M 71 18 " clip-rule="nonzero"/></clipPath><clipPath id="988e1b7d2f"><path d="M 88.925781 8.550781 L 108.476562 29.207031 L 90.539062 46.1875 L 70.988281 25.53125 Z M 88.925781 8.550781 " clip-rule="nonzero"/></clipPath><clipPath id="608d9a52d1"><path d="M 88.925781 8.550781 L 108.476562 29.207031 L 90.539062 46.1875 L 70.988281 25.53125 Z M 88.925781 8.550781 " clip-rule="nonzero"/></clipPath><clipPath id="c264f5b19a"><path d="M 573 256 L 601.253906 256 L 601.253906 282 L 573 282 Z M 573 256 " clip-rule="nonzero"/></clipPath><clipPath id="e8a76a293f"><path d="M 565.527344 268.582031 L 580.9375 244.679688 L 601.695312 258.0625 L 586.285156 281.964844 Z M 565.527344 268.582031 " clip-rule="nonzero"/></clipPath><clipPath id="c5c2911ded"><path d="M 565.527344 268.582031 L 580.9375 244.679688 L 601.695312 258.0625 L 586.285156 281.964844 Z M 565.527344 268.582031 " clip-rule="nonzero"/></clipPath><clipPath id="4b67b57b47"><path d="M 548 63 L 575 63 L 575 92 L 548 92 Z M 548 63 " clip-rule="nonzero"/></clipPath><clipPath id="f5ab5eb4af"><path d="M 563.523438 54.804688 L 585.4375 72.933594 L 569.691406 91.960938 L 547.777344 73.832031 Z M 563.523438 54.804688 " clip-rule="nonzero"/></clipPath><clipPath id="bc7d2ad79d"><path d="M 563.523438 54.804688 L 585.4375 72.933594 L 569.691406 91.960938 L 547.777344 73.832031 Z M 563.523438 54.804688 " clip-rule="nonzero"/></clipPath><clipPath id="bda02fc613"><path d="M 39 48.347656 L 553 48.347656 L 553 331.261719 L 39 331.261719 Z M 39 48.347656 " clip-rule="nonzero"/></clipPath></defs><g clip-path="url(#825496c2fa)"><path fill="#fecbcb" d="M 41.460938 36.460938 C 41.460938 37.453125 41.363281 38.4375 41.171875 39.410156 C 40.976562 40.382812 40.691406 41.328125 40.3125 42.246094 C 39.929688 43.160156 39.464844 44.03125 38.914062 44.859375 C 38.363281 45.683594 37.734375 46.445312 37.035156 47.148438 C 36.332031 47.851562 35.570312 48.476562 34.742188 49.027344 C 33.917969 49.578125 33.046875 50.046875 32.128906 50.425781 C 31.214844 50.804688 30.269531 51.09375 29.292969 51.285156 C 28.320312 51.480469 27.339844 51.574219 26.347656 51.574219 C 25.355469 51.574219 24.371094 51.480469 23.398438 51.285156 C 22.425781 51.09375 21.480469 50.804688 20.5625 50.425781 C 19.644531 50.046875 18.773438 49.578125 17.949219 49.027344 C 17.125 48.476562 16.359375 47.851562 15.65625 47.148438 C 14.957031 46.445312 14.328125 45.683594 13.777344 44.859375 C 13.226562 44.03125 12.761719 43.160156 12.382812 42.246094 C 12 41.328125 11.714844 40.382812 11.519531 39.410156 C 11.328125 38.4375 11.230469 37.453125 11.230469 36.460938 C 11.230469 35.46875 11.328125 34.484375 11.519531 33.511719 C 11.714844 32.539062 12 31.59375 12.382812 30.675781 C 12.761719 29.757812 13.226562 28.886719 13.777344 28.0625 C 14.328125 27.238281 14.957031 26.472656 15.65625 25.773438 C 16.359375 25.070312 17.125 24.445312 17.949219 23.894531 C 18.773438 23.339844 19.644531 22.875 20.5625 22.496094 C 21.480469 22.117188 22.425781 21.828125 23.398438 21.636719 C 24.371094 21.441406 25.355469 21.34375 26.347656 21.34375 C 27.339844 21.34375 28.320312 21.441406 29.292969 21.636719 C 30.269531 21.828125 31.214844 22.117188 32.128906 22.496094 C 33.046875 22.875 33.917969 23.339844 34.742188 23.894531 C 35.570312 24.445312 36.332031 25.070312 37.035156 25.773438 C 37.734375 26.472656 38.363281 27.238281 38.914062 28.0625 C 39.464844 28.886719 39.929688 29.757812 40.3125 30.675781 C 40.691406 31.59375 40.976562 32.539062 41.171875 33.511719 C 41.363281 34.484375 41.460938 35.46875 41.460938 36.460938 Z M 41.460938 36.460938 " fill-opacity="1" fill-rule="nonzero"/></g><g clip-path="url(#391b72ec89)"><path fill="#fecbcb" d="M 80.988281 342.523438 C 80.988281 343.164062 80.925781 343.796875 80.800781 344.425781 C 80.675781 345.054688 80.492188 345.664062 80.246094 346.253906 C 80 346.847656 79.699219 347.410156 79.34375 347.941406 C 78.988281 348.472656 78.585938 348.96875 78.132812 349.417969 C 77.679688 349.871094 77.1875 350.277344 76.65625 350.632812 C 76.121094 350.988281 75.558594 351.289062 74.96875 351.535156 C 74.375 351.777344 73.765625 351.964844 73.136719 352.089844 C 72.511719 352.214844 71.875 352.277344 71.234375 352.277344 C 70.59375 352.277344 69.960938 352.214844 69.332031 352.089844 C 68.703125 351.964844 68.09375 351.777344 67.503906 351.535156 C 66.910156 351.289062 66.347656 350.988281 65.816406 350.632812 C 65.285156 350.277344 64.792969 349.871094 64.339844 349.417969 C 63.886719 348.96875 63.480469 348.472656 63.125 347.941406 C 62.769531 347.410156 62.46875 346.847656 62.226562 346.253906 C 61.980469 345.664062 61.792969 345.054688 61.667969 344.425781 C 61.542969 343.796875 61.484375 343.164062 61.484375 342.523438 C 61.484375 341.882812 61.542969 341.25 61.667969 340.621094 C 61.792969 339.992188 61.980469 339.382812 62.226562 338.789062 C 62.46875 338.199219 62.769531 337.636719 63.125 337.105469 C 63.480469 336.570312 63.886719 336.078125 64.339844 335.625 C 64.792969 335.171875 65.285156 334.769531 65.816406 334.414062 C 66.347656 334.058594 66.910156 333.757812 67.503906 333.511719 C 68.09375 333.265625 68.703125 333.082031 69.332031 332.957031 C 69.960938 332.832031 70.59375 332.769531 71.234375 332.769531 C 71.875 332.769531 72.511719 332.832031 73.136719 332.957031 C 73.765625 333.082031 74.375 333.265625 74.96875 333.511719 C 75.558594 333.757812 76.121094 334.058594 76.65625 334.414062 C 77.1875 334.769531 77.679688 335.171875 78.132812 335.625 C 78.585938 336.078125 78.988281 336.570312 79.34375 337.105469 C 79.699219 337.636719 80 338.199219 80.246094 338.789062 C 80.492188 339.382812 80.675781 339.992188 80.800781 340.621094 C 80.925781 341.25 80.988281 341.882812 80.988281 342.523438 Z M 80.988281 342.523438 " fill-opacity="1" fill-rule="nonzero"/></g><g clip-path="url(#3fe999c992)"><path fill="#fecbcb" d="M 539.035156 36.8125 C 539.035156 37.394531 538.976562 37.972656 538.863281 38.546875 C 538.75 39.121094 538.578125 39.675781 538.355469 40.214844 C 538.132812 40.757812 537.859375 41.269531 537.535156 41.753906 C 537.210938 42.242188 536.839844 42.691406 536.425781 43.105469 C 536.015625 43.515625 535.566406 43.886719 535.078125 44.210938 C 534.59375 44.535156 534.078125 44.808594 533.539062 45.03125 C 533 45.257812 532.445312 45.425781 531.871094 45.539062 C 531.296875 45.652344 530.71875 45.710938 530.132812 45.710938 C 529.550781 45.710938 528.972656 45.652344 528.398438 45.539062 C 527.824219 45.425781 527.269531 45.257812 526.730469 45.03125 C 526.1875 44.808594 525.675781 44.535156 525.191406 44.210938 C 524.703125 43.886719 524.253906 43.515625 523.839844 43.105469 C 523.429688 42.691406 523.058594 42.242188 522.734375 41.753906 C 522.410156 41.269531 522.136719 40.757812 521.914062 40.214844 C 521.6875 39.675781 521.519531 39.121094 521.40625 38.546875 C 521.292969 37.972656 521.234375 37.394531 521.234375 36.8125 C 521.234375 36.226562 521.292969 35.648438 521.40625 35.074219 C 521.519531 34.5 521.6875 33.945312 521.914062 33.40625 C 522.136719 32.867188 522.410156 32.351562 522.734375 31.867188 C 523.058594 31.378906 523.429688 30.929688 523.839844 30.519531 C 524.253906 30.105469 524.703125 29.734375 525.191406 29.410156 C 525.675781 29.085938 526.1875 28.8125 526.730469 28.589844 C 527.269531 28.363281 527.824219 28.195312 528.398438 28.082031 C 528.972656 27.96875 529.550781 27.910156 530.132812 27.910156 C 530.71875 27.910156 531.296875 27.96875 531.871094 28.082031 C 532.445312 28.195312 533 28.363281 533.539062 28.589844 C 534.078125 28.8125 534.59375 29.085938 535.078125 29.410156 C 535.566406 29.734375 536.015625 30.105469 536.425781 30.519531 C 536.839844 30.929688 537.210938 31.378906 537.535156 31.867188 C 537.859375 32.351562 538.132812 32.867188 538.355469 33.40625 C 538.578125 33.945312 538.75 34.5 538.863281 35.074219 C 538.976562 35.648438 539.035156 36.226562 539.035156 36.8125 Z M 539.035156 36.8125 " fill-opacity="1" fill-rule="nonzero"/></g><g clip-path="url(#2c1f26decb)"><path fill="#fecbcb" d="M 572.722656 310.644531 C 572.722656 311.457031 572.644531 312.257812 572.484375 313.054688 C 572.324219 313.851562 572.089844 314.625 571.78125 315.375 C 571.46875 316.125 571.089844 316.835938 570.640625 317.511719 C 570.1875 318.1875 569.675781 318.808594 569.101562 319.382812 C 568.527344 319.957031 567.902344 320.46875 567.226562 320.921875 C 566.554688 321.371094 565.839844 321.753906 565.089844 322.0625 C 564.339844 322.375 563.570312 322.609375 562.773438 322.765625 C 561.976562 322.925781 561.171875 323.003906 560.359375 323.003906 C 559.550781 323.003906 558.746094 322.925781 557.949219 322.765625 C 557.152344 322.609375 556.378906 322.375 555.628906 322.0625 C 554.878906 321.753906 554.167969 321.371094 553.492188 320.921875 C 552.820312 320.46875 552.195312 319.957031 551.621094 319.382812 C 551.046875 318.808594 550.535156 318.1875 550.082031 317.511719 C 549.632812 316.835938 549.25 316.125 548.941406 315.375 C 548.628906 314.625 548.394531 313.851562 548.238281 313.054688 C 548.078125 312.257812 548 311.457031 548 310.644531 C 548 309.832031 548.078125 309.027344 548.238281 308.230469 C 548.394531 307.4375 548.628906 306.664062 548.941406 305.914062 C 549.25 305.164062 549.632812 304.449219 550.082031 303.777344 C 550.535156 303.101562 551.046875 302.476562 551.621094 301.902344 C 552.195312 301.328125 552.820312 300.816406 553.492188 300.367188 C 554.167969 299.914062 554.878906 299.535156 555.628906 299.222656 C 556.378906 298.914062 557.152344 298.679688 557.949219 298.519531 C 558.746094 298.363281 559.550781 298.28125 560.359375 298.28125 C 561.171875 298.28125 561.976562 298.363281 562.773438 298.519531 C 563.570312 298.679688 564.339844 298.914062 565.089844 299.222656 C 565.839844 299.535156 566.554688 299.914062 567.226562 300.367188 C 567.902344 300.816406 568.527344 301.328125 569.101562 301.902344 C 569.675781 302.476562 570.1875 303.101562 570.640625 303.777344 C 571.089844 304.449219 571.46875 305.164062 571.78125 305.914062 C 572.089844 306.664062 572.324219 307.4375 572.484375 308.230469 C 572.644531 309.027344 572.722656 309.832031 572.722656 310.644531 Z M 572.722656 310.644531 " fill-opacity="1" fill-rule="nonzero"/></g><g clip-path="url(#78efe4687b)"><g clip-path="url(#ebc6a5e622)"><g clip-path="url(#2b9bc7bc0e)"><path fill="#fecbcb" d="M 21.664062 109.949219 L 9.335938 84.683594 L 37.382812 86.640625 Z M 21.664062 109.949219 " fill-opacity="1" fill-rule="nonzero"/></g></g></g><g clip-path="url(#d6e77be3b5)"><g clip-path="url(#2552138a98)"><g clip-path="url(#41b12129d6)"><path fill="#fecbcb" d="M 143.226562 360.746094 L 139.480469 332.882812 L 165.484375 343.570312 Z M 143.226562 360.746094 " fill-opacity="1" fill-rule="nonzero"/></g></g></g><g clip-path="url(#02cba362d5)"><g clip-path="url(#7dec015884)"><g clip-path="url(#f9ae2f2b07)"><path fill="#fecbcb" d="M 493.820312 337.53125 L 521.75 334.300781 L 510.582031 360.101562 Z M 493.820312 337.53125 " fill-opacity="1" fill-rule="nonzero"/></g></g></g><g clip-path="url(#d4b0c597fe)"><g clip-path="url(#d077121483)"><g clip-path="url(#490580455b)"><path fill="#fecbcb" d="M 459.480469 36.453125 L 455.730469 8.589844 L 481.734375 19.273438 Z M 459.480469 36.453125 " fill-opacity="1" fill-rule="nonzero"/></g></g></g><g clip-path="url(#3243d48c79)"><g clip-path="url(#583934246b)"><g clip-path="url(#147d5f0aae)"><path fill="#fecbcb" d="M 15.125 281.40625 L 11.378906 253.542969 L 37.382812 264.230469 Z M 15.125 281.40625 " fill-opacity="1" fill-rule="nonzero"/></g></g></g><g clip-path="url(#a79f8b55a8)"><g clip-path="url(#988e1b7d2f)"><g clip-path="url(#608d9a52d1)"><path fill="#fecbcb" d="M 71.242188 25.289062 L 98.585938 18.761719 L 90.566406 45.707031 Z M 71.242188 25.289062 " fill-opacity="1" fill-rule="nonzero"/></g></g></g><g clip-path="url(#c264f5b19a)"><g clip-path="url(#e8a76a293f)"><g clip-path="url(#c5c2911ded)"><path fill="#fecbcb" d="M 585.988281 281.777344 L 573.144531 256.769531 L 601.222656 258.148438 Z M 585.988281 281.777344 " fill-opacity="1" fill-rule="nonzero"/></g></g></g><g clip-path="url(#4b67b57b47)"><g clip-path="url(#f5ab5eb4af)"><g clip-path="url(#bc7d2ad79d)"><path fill="#fecbcb" d="M 548.003906 73.5625 L 574.351562 63.761719 L 569.664062 91.484375 Z M 548.003906 73.5625 " fill-opacity="1" fill-rule="nonzero"/></g></g></g><path fill="#fecbcb" d="M 435.089844 344.390625 C 438.386719 346.652344 442.71875 343.808594 442.007812 339.863281 L 437.03125 313.742188 L 483.648438 313.742188 C 515.714844 313.742188 541.707031 287.75 541.707031 255.679688 L 541.707031 134.257812 C 541.707031 102.1875 515.714844 76.195312 483.648438 76.195312 L 108.382812 76.195312 C 76.3125 76.128906 50.320312 102.1875 50.320312 134.257812 L 50.320312 255.679688 C 50.320312 287.75 76.3125 313.742188 108.382812 313.742188 L 390.285156 313.742188 Z M 435.089844 344.390625 " fill-opacity="1" fill-rule="nonzero"/><path fill="#ffffff" d="M 435.035156 323.378906 C 438.332031 325.640625 442.664062 322.800781 441.953125 318.859375 L 436.976562 292.765625 L 483.585938 292.765625 C 515.652344 292.765625 541.640625 266.796875 541.640625 234.761719 L 541.640625 113.457031 C 541.640625 81.417969 515.652344 55.453125 483.585938 55.453125 L 108.375 55.453125 C 76.308594 55.386719 50.320312 81.417969 50.320312 113.457031 L 50.320312 234.761719 C 50.320312 266.796875 76.308594 292.765625 108.375 292.765625 L 390.234375 292.765625 Z M 435.035156 323.378906 " fill-opacity="1" fill-rule="nonzero"/><g clip-path="url(#bda02fc613)"><path stroke-linecap="butt" transform="matrix(0.646474, 0, 0, 0.645921, 37.390305, 48.347182)" fill="none" stroke-linejoin="miter" d="M 615.097902 425.797778 C 620.197681 429.299319 626.898694 424.902738 625.798979 418.800744 L 618.100971 378.403001 L 690.198796 378.403001 C 739.800794 378.403001 780.00083 338.198781 780.00083 288.60269 L 780.00083 100.801569 C 780.00083 51.19943 739.800794 11.001257 690.198796 11.001257 L 109.802848 11.001257 C 60.200849 10.898449 20.000814 51.19943 20.000814 100.801569 L 20.000814 288.60269 C 20.000814 338.198781 60.200849 378.403001 109.802848 378.403001 L 545.797705 378.403001 Z M 615.097902 425.797778 " stroke="#000000" stroke-width="3" stroke-opacity="1" stroke-miterlimit="4"/></g></svg>